<?xml version="1.0" encoding="UTF-8"?>
<svg id="Ebene_2" xmlns="http://www.w3.org/2000/svg" xmlns:xlink="http://www.w3.org/1999/xlink" viewBox="0 0 55.07 43.79"><defs><style>.cls-1{fill:url(#Unbenannter_Verlauf_2-2);}.cls-2{fill:#f59a2d;fill-rule:evenodd;}.cls-3{fill:url(#Unbenannter_Verlauf_2);}</style><linearGradient id="Unbenannter_Verlauf_2" x1="355.65" y1="-351.21" x2="325.3" y2="-351.21" gradientTransform="translate(27.2 -467.41) rotate(135)" gradientUnits="userSpaceOnUse"><stop offset="0" stop-color="#283c7d"/><stop offset="1" stop-color="#00acaa"/></linearGradient><linearGradient id="Unbenannter_Verlauf_2-2" x1="410.4" y1="340.52" x2="410.4" y2="305.94" gradientTransform="translate(-39.39 -499.57) rotate(45)" xlink:href="#Unbenannter_Verlauf_2"/></defs><g id="Ebene_1-2"><path class="cls-3" d="m39.72,5.05c.73.7,1.24,1.6,1.46,2.59.12.53.17,1.08.14,1.62h0c-.08,2.41,1.05,3.73,2.61,5.29s2.88,2.69,5.29,2.62c1.58-.13,3.13.46,4.24,1.59,2.14,2.14,2.14,5.6,0,7.74-2.14,2.14-5.6,2.14-7.74,0h0c-1.13-1.11-1.71-2.66-1.59-4.24.07-2.41-1.05-3.73-2.62-5.29s-2.88-2.69-5.28-2.62h-.75c-2.41-.07-3.73,1.06-5.29,2.62s-2.69,2.93-2.62,5.32c.14,1.57-.42,3.12-1.54,4.24-2.11,2.18-5.58,2.23-7.75.12s-2.23-5.58-.12-7.75h0l.09-.09c1.11-1.13,2.66-1.72,4.24-1.59,2.41.07,3.72-1.06,5.29-2.62s2.69-2.88,2.61-5.29h0c-.03-.54.02-1.09.15-1.62.22-1.01.74-1.93,1.5-2.64,2.13-2.14,5.6-2.14,7.74,0,0,0,0,0,0,0"/><path class="cls-1" d="m1.86,17.39c.82-.83,1.86-1.41,3-1.66.6-.15,1.23-.2,1.85-.16h0c2.75.08,4.25-1.21,6-3s3.08-3.29,3-6c-.14-1.81.53-3.58,1.82-4.85,2.51-2.38,6.47-2.28,8.85.23,2.29,2.42,2.29,6.2,0,8.62-1.27,1.29-3.04,1.96-4.85,1.82-2.75-.08-4.25,1.21-6,3-1.75,1.79-3.07,3.3-3,6v.42h0v.43c-.08,2.75,1.2,4.25,3,6,1.8,1.75,3.29,3.07,6,3,1.81-.14,3.58.52,4.85,1.82,2.47,2.41,2.52,6.37.1,8.85-2.41,2.47-6.37,2.52-8.84.1l-.11-.1c-1.29-1.27-1.96-3.04-1.82-4.85.09-2.75-1.2-4.25-3-6s-3.29-3.08-6-3h0c-.63.04-1.26-.01-1.88-.16-1.14-.25-2.18-.83-3-1.66-2.44-2.44-2.44-6.41,0-8.85"/><path class="cls-2" d="m31.75,19.34h0c2.24-2.24,5.87-2.23,8.1,0,2.24,2.24,2.23,5.87,0,8.1-2.24,2.23-5.86,2.23-8.1,0-2.24-2.24-2.24-5.86,0-8.1,0,0,0,0,0,0h0"/></g></svg>